{"title":"Suburban Mayhem 2006.DVDRip.H.263.DivX . NVEE","uid":8410019,"size":1073661259,"categoryP":"video","categoryS":"movies","magnet":"?xt=urn:btih:bd9d5a18b8e6cf67c917602937399d97db257ccb&amp;dn=Suburban+Mayhem+2006.DVDRip.H.263.DivX+.+NVEE&amp;tr=udp%3A%2F%2Ftracker.openbittorrent.com%3A80&amp;tr=udp%3A%2F%2Fopen.demonii.com%3A1337&amp;tr=udp%3A%2F%2Ftracker.coppersurfer.tk%3A6969&amp;tr=udp%3A%2F%2Fexodus.desync.com%3A6969","seeders":2,"leechers":4,"uploader":".NVEE","files":2,"time":1366897413,"description":"\n\nFULL_INFOs\n\n100% - SYNCED GUARANTEED \n\nSource : DVD\n\nMy Media Player of Choice &quot;VLC Media Player&quot;\n\nSpoken Language : English Only\n\nAudio : 6 ~ Channels \n\nSubs Info :\n &lt;a href=&quot;\nhttp://www.subtitleseeker.com/0450506/Suburban+Mayhem/Subtitles/&quot; rel=&quot;nofollow&quot; target=&quot;_NEW&quot;&gt;\nhttp://www.subtitleseeker.com/0450506/Suburban+Mayhem/Subtitles/&lt;/a&gt;\n\n15 Subtitles In 5 Languages Use Link Provided \n &lt;a href=&quot;\nhttp://www.subtitleseeker.com/0450506/Suburban+Mayhem/Subtitles/&quot; rel=&quot;nofollow&quot; target=&quot;_NEW&quot;&gt;\nhttp://www.subtitleseeker.com/0450506/Suburban+Mayhem/Subtitles/&lt;/a&gt;\n\n15 Subtitles In 5 Languages Only @ SubtitleSeeker\n &lt;a href=&quot;\nhttp://www.subtitleseeker.com/0450506/Suburban+Mayhem/Subtitles/&quot; rel=&quot;nofollow&quot; target=&quot;_NEW&quot;&gt;\nhttp://www.subtitleseeker.com/0450506/Suburban+Mayhem/Subtitles/&lt;/a&gt;\n\nAll .srt subs can be turned On/Off\n\n\nGeneral \n\nComplete name : Suburban Mayhem 2006.DVDRip.H.263.DivX . NVEE.divx \nFormat : AVI \nFormat/Info : Audio Video Interleave \nFile size : 1 024 MiB \nDuration : 1h 21mn \nOverall bit rate : 1 758 Kbps \n\nVideo \n\nID : 0 \nFormat : MPEG-4 Visual \nFormat settings, BVOP : 1 \nFormat settings, QPel : No \nFormat settings, GMC : No warppoints \nFormat settings, Matrix : Default (H.263) \nMuxing mode : Packed bitstream \nCodec ID : DX50 \nCodec ID/Hint : DivX 5 \nDuration : 1h 21mn \nBit rate : 1 300 Kbps \nWidth : 720 pixels \nHeight : 400 pixels \nDisplay aspect ratio : 16:9 \nFrame rate : 25.000 fps \nColor space : YUV \nChroma subsampling : 4:2:0 \nBit depth : 8 bits \nScan type : Progressive \nCompression mode : Lossy \nBits/(Pixel*Frame) : 0.181 \nStream size : 757 MiB (74%) \nTitle : Video \nWriting library : DivX 6.8.5 (UTC 2009-08-20) \n\nAudio \n\nID : 1 \nFormat : AC-3 \nFormat/Info : Audio Coding 3 \nMode extension : CM (complete main) \nFormat settings, Endianness : Big \nCodec ID : 2000 \nDuration : 1h 21mn \nBit rate mode : Constant \nBit rate : 448 Kbps \nChannel(s) : 6 channels \nChannel positions : Front: L C R, Side: L R, LFE \nSampling rate : 48.0 KHz \nBit depth : 16 bits \nCompression mode : Lossy \nStream size : 261 MiB (25%) \nAlignment : Split accross interleaves \nInterleave, duration : 40 ms (1.00 video frame) \nInterleave, preload duration : 500 ms \nTitle : Audio \n\n\n\nKatrina (Emily Barclay) is a 19-year-old mum who's planning to get away with murder. Katrina lives in a world of petty crime, fast cars, manicures and BLOW-JOBS. A master manipulator of men living at home with her father in suburban Golden Grove-Australia, Katrina will stop at nothing to get what she wants - even murder. When her father threatens to contact social services and take away her child, Katrina sets in motion a plan to wreak suburban mayhem that will leave a community in shock and make Katrina infamous in a way even she never dreamed of.\n\nSEE ME TORRENTS N' SEED ME TORRENTS !!!\n\n\n\n\nPLEAASE SEED !!!\n\n (Thank You)\n\n\n\n","torrent":{"xt":"urn:btih:bd9d5a18b8e6cf67c917602937399d97db257ccb","amp;dn":"Suburban+Mayhem+2006.DVDRip.H.263.DivX+.+NVEE","amp;tr":["udp%3A%2F%2Ftracker.openbittorrent.com%3A80","udp%3A%2F%2Fopen.demonii.com%3A1337","udp%3A%2F%2Ftracker.coppersurfer.tk%3A6969","udp%3A%2F%2Fexodus.desync.com%3A6969"],"infoHash":"bd9d5a18b8e6cf67c917602937399d97db257ccb","infoHashBuffer":{"type":"Buffer","data":[189,157,90,24,184,230,207,103,201,23,96,41,55,57,157,151,219,37,124,203]},"announce":[],"urlList":[]}}